<svg width="35" height="35" viewBox="0 0 35 35" fill="none" xmlns="http://www.w3.org/2000/svg">
<path d="M17.4996 10C17.0535 10 16.6256 10.1899 16.3101 10.5279C15.9946 10.8659 15.8174 11.3244 15.8174 11.8024V16.6088C15.8174 17.0868 15.9946 17.5453 16.3101 17.8833C16.6256 18.2213 17.0535 18.4112 17.4996 18.4112C17.9458 18.4112 18.3737 18.2213 18.6892 17.8833C19.0046 17.5453 19.1819 17.0868 19.1819 16.6088V11.8024C19.1819 11.3244 19.0046 10.8659 18.6892 10.5279C18.3737 10.1899 17.9458 10 17.4996 10Z" stroke="white" stroke-width="2" stroke-linecap="round" stroke-linejoin="round"/>
<path d="M22.4063 15.8878V17.2897C22.4063 18.591 21.8894 19.839 20.9693 20.7592C20.0491 21.6793 18.8011 22.1963 17.4998 22.1963C16.1985 22.1963 14.9505 21.6793 14.0304 20.7592C13.1102 19.839 12.5933 18.591 12.5933 17.2897V15.8878" stroke="white" stroke-width="2" stroke-linecap="round" stroke-linejoin="round"/>
<path d="M17.4995 22.1963V25" stroke="white" stroke-width="2" stroke-linecap="round" stroke-linejoin="round"/>
<path d="M14.6963 25H20.3038" stroke="white" stroke-width="2" stroke-linecap="round" stroke-linejoin="round"/>
</svg>
