<svg width="12" height="12" viewBox="0 0 12 12" fill="none" xmlns="http://www.w3.org/2000/svg">
<g clip-path="url(#clip0_35_3805)">
<path fill-rule="evenodd" clip-rule="evenodd" d="M4.99994 11C4.99994 11.5523 5.44765 12 5.99994 12C6.55222 12 6.99994 11.5523 6.99994 11L6.99996 7.00007L11 7.00008C11.5523 7.00009 12 6.55237 12 6.00009C12 5.4478 11.5523 5.00009 11 5.00008L6.99997 5.00007L6.99999 1C6.99999 0.44772 6.55227 2.89083e-06 5.99999 0C5.44771 -1.96695e-06 4.99999 0.447711 4.99999 0.999996L4.99997 5.00006L1 5.00004C0.447719 5.00004 2.29479e-06 5.44775 0 6.00004C-2.38418e-06 6.55232 0.447711 7.00004 0.999996 7.00004L4.99996 7.00006L4.99994 11Z" fill="white"/>
</g>
<defs>
<clipPath id="clip0_35_3805">
<rect width="12" height="12" rx="6" fill="white"/>
</clipPath>
</defs>
</svg>
