<svg width="16" height="16" viewBox="0 0 16 16" fill="none" xmlns="http://www.w3.org/2000/svg">
<path fill-rule="evenodd" clip-rule="evenodd" d="M2.06541 12.5796L0.702637 15.1427L3.35487 13.9627L14.6804 8.92364C14.9086 8.82896 15.1022 8.65009 15.2106 8.4066C15.2695 8.27418 15.2973 8.13581 15.2972 7.99966C15.2972 7.86369 15.2694 7.7255 15.2106 7.59325C15.1022 7.34976 14.9085 7.17089 14.6804 7.0762L3.35487 2.0372L0.702637 0.857154L2.06541 3.4203L4.50031 7.99993L2.06541 12.5796ZM6.57281 7.65814C6.5542 7.60691 6.53142 7.55714 6.50463 7.50941L5.1941 5.04454L11.8365 7.99993L5.1941 10.9553L6.50458 8.49053C6.53176 8.44212 6.55482 8.39161 6.57357 8.3396C6.65116 8.12444 6.65512 7.8835 6.57281 7.65814Z" fill="white"/>
</svg>
