<svg width="16" height="9" viewBox="0 0 16 9" fill="none" xmlns="http://www.w3.org/2000/svg">
<path fill-rule="evenodd" clip-rule="evenodd" d="M15.5606 2.56029C16.1464 1.97451 16.1464 1.02476 15.5606 0.438974C14.9748 -0.146813 14.025 -0.146813 13.4393 0.438974L8.49935 5.37888L3.55944 0.438974C2.97365 -0.146813 2.02391 -0.146813 1.43812 0.438974C0.852333 1.02476 0.852333 1.97451 1.43812 2.56029L7.42381 8.54598C7.42869 8.551 7.43362 8.556 7.43859 8.56097C7.73151 8.85389 8.11543 9.00033 8.49935 9.00031C8.88327 9.00033 9.26719 8.85389 9.56011 8.56097C9.56508 8.556 9.57 8.55101 9.57488 8.546L15.5606 2.56029Z" fill="white"/>
</svg>
