<svg width="25" height="25" viewBox="0 0 25 25" fill="none" xmlns="http://www.w3.org/2000/svg">
<rect x="0.763123" y="0.381592" width="24.2369" height="24.2369" rx="12.1184" fill="black"/>
<path d="M11.5925 13.7891L9.66477 11.8613C9.33644 11.533 9.33644 11.0007 9.66477 10.6723V10.6723C9.82244 10.5147 10.0363 10.4261 10.2593 10.4261H11.1783C11.4435 10.4261 11.6979 10.3207 11.8854 10.1332L14.7453 7.27327C14.8614 7.15719 14.8614 6.96898 14.7453 6.8529V6.8529C14.6292 6.73682 14.6292 6.54861 14.7453 6.43253L14.9555 6.22234C15.1877 5.99017 15.5641 5.99017 15.7963 6.22234L19.1592 9.58533C19.3914 9.81749 19.3914 10.1939 19.1592 10.4261L18.9491 10.6363C18.833 10.7523 18.6448 10.7523 18.5287 10.6363V10.6363C18.4126 10.5202 18.2244 10.5202 18.1083 10.6363L15.2484 13.4962C15.0609 13.6837 14.9555 13.9381 14.9555 14.2033V15.1223C14.9555 15.3453 14.8669 15.5591 14.7093 15.7168V15.7168C14.3809 16.0451 13.8486 16.0451 13.5203 15.7168L11.5925 13.7891ZM11.5925 13.7891L8.28536 17.0962" stroke="white" stroke-width="2" stroke-linecap="round"/>
</svg>
